<?xml version="1.0" encoding="UTF-8"?>
<svg version="1.1" xmlns="http://www.w3.org/2000/svg" width="1920" height="1920">
<path d="M0 0 C4.48473817 2.73372486 8.78910926 5.72256329 13.05688477 8.78271484 C22.41635629 15.46462315 22.41635629 15.46462315 33.484375 17.2890625 C41.99578962 15.57054158 49.10401688 10.07458586 56.06640625 5.16796875 C70.13513679 -4.71785331 70.13513679 -4.71785331 78.69140625 -4.20703125 C89.0300017 -2.32728662 96.32553537 7.66163388 102.50390625 15.48046875 C106.80875356 20.85587353 111.29479175 25.57743058 117.94140625 27.79296875 C126.87235249 28.61990822 134.87204901 25.3861932 143.1015625 22.19140625 C159.88571717 15.74691348 159.88571717 15.74691348 168.94140625 17.79296875 C178.28619833 22.58276167 183.11594136 33.97169411 187.44140625 42.98046875 C190.65433531 49.55794823 194.58137599 57.24951923 201.94140625 59.79296875 C204.86259858 60.05531714 207.76077941 60.02596051 210.69140625 59.98046875 C211.46484375 59.97982422 212.23828125 59.97917969 213.03515625 59.97851562 C217.39543479 59.94559406 221.60197505 59.62351674 225.91845703 59.03100586 C229.60800154 58.59686322 233.29232378 58.5276899 237.00390625 58.48046875 C238.14956055 58.43696289 238.14956055 58.43696289 239.31835938 58.39257812 C245.02423557 58.32912527 248.24190586 59.53671594 252.94140625 62.79296875 C259.02796175 69.5751306 260.5080517 79.68951016 262.39086914 88.37133789 C264.22726846 96.77798632 266.24147904 103.89026106 272.94140625 109.79296875 C280.37777318 113.41664715 288.78381768 113.75285366 296.8828125 114.52148438 C305.17801053 115.41898019 313.3485176 116.93332268 320.00390625 122.23046875 C325.78980823 129.88279073 325.05278557 139.47543061 324.87890625 148.66796875 C324.49700228 163.23831624 324.49700228 163.23831624 330.94140625 175.79296875 C337.68580712 180.42974435 345.65927062 183.25021319 353.32421875 186.01171875 C361.17569168 188.85355118 367.71417506 191.65807879 372.94140625 198.35546875 C375.86764669 208.41442025 373.5296837 217.74078081 370.80859375 227.54931641 C368.61486624 235.49206826 366.30967718 243.96009619 369.94140625 251.79296875 C374.39213027 258.0987002 380.00920771 262.24516179 386.44140625 266.35546875 C403.35111203 277.2412588 403.35111203 277.2412588 405.94140625 286.79296875 C406.92058122 295.72171682 402.05846455 303.26056864 397.99023438 310.83300781 C396.44887803 313.71336366 394.97338158 316.62541821 393.50390625 319.54296875 C393.03082031 320.4659375 392.55773438 321.38890625 392.0703125 322.33984375 C389.98012286 326.88184753 389.52397755 330.7838243 389.94140625 335.79296875 C392.13630545 341.65855511 395.67083438 346.24521691 399.81640625 350.85546875 C400.83463542 352.01302083 401.85286458 353.17057292 402.87109375 354.328125 C403.37398926 354.89523193 403.87688477 355.46233887 404.39501953 356.04663086 C405.99581799 357.85441604 407.59121236 359.66624489 409.17578125 361.48828125 C409.64983398 362.0311377 410.12388672 362.57399414 410.61230469 363.13330078 C414.87802224 368.45996278 416.66871722 373.51952247 416.3046875 380.36328125 C415.06491167 388.65511532 409.30607859 393.90726064 403.76953125 399.765625 C393.38372337 410.39760954 393.38372337 410.39760954 389.75390625 424.23046875 C390.72946258 431.36286949 394.56009358 437.54199272 397.89257812 443.81201172 C407.60825574 462.16233951 407.60825574 462.16233951 405.41015625 470.90625 C401.40390391 480.45819424 391.43521192 486.01218836 383.08276367 491.38037109 C379.51687857 493.64558432 379.51687857 493.64558432 376.36279297 496.43041992 C374.94140625 497.79296875 374.94140625 497.79296875 372.94140625 497.79296875 C372.94140625 498.45296875 372.94140625 499.11296875 372.94140625 499.79296875 C372.28140625 499.79296875 371.62140625 499.79296875 370.94140625 499.79296875 C366.98212891 510.31924024 368.57076643 520.38466884 371.44140625 530.91796875 C376.41419567 549.22482897 376.41419567 549.22482897 372.56640625 557.73046875 C366.18435222 566.30036978 353.51897302 569.49318107 343.95507812 573.00390625 C336.89342376 575.69978402 330.22162292 578.43982784 326.56640625 585.41796875 C325.08695292 593.40701675 324.90948726 601.32109498 325.00390625 609.41796875 C325.07672066 618.3308462 325.0296602 626.6900058 318.94140625 633.79296875 C314.62257694 637.10407122 311.16448437 638.46784409 305.81640625 639.35546875 C305.13916504 639.47349854 304.46192383 639.59152832 303.76416016 639.71313477 C299.74067277 640.39822485 295.70576588 640.96655272 291.66015625 641.50390625 C290.32815186 641.68651001 290.32815186 641.68651001 288.96923828 641.87280273 C287.23781825 642.10624009 285.5043645 642.32518361 283.76904297 642.52758789 C277.32887232 643.38649306 273.32899102 645.32972108 268.72265625 650.08203125 C266.612646 653.29331878 265.48715273 656.50985772 264.44140625 660.16796875 C264.23201416 660.8640625 264.02262207 661.56015625 263.80688477 662.27734375 C262.56707966 666.45115022 261.44773349 670.64996012 260.37133789 674.8684082 C256.20953065 691.13391465 256.20953065 691.13391465 248.94140625 695.79296875 C245.16672125 697.05119708 241.62451765 696.98333157 237.69140625 696.98046875 C236.48955688 696.98252319 236.48955688 696.98252319 235.26342773 696.98461914 C230.07526543 696.94302346 225.13217456 696.51051367 220.00390625 695.73046875 C212.44389659 694.60537095 205.54843735 693.9894532 198.56640625 697.48046875 C191.14036351 704.02245879 187.39824497 712.20188611 183.02148438 720.93945312 C179.32344759 728.038798 175.2942631 734.11654032 167.94140625 737.79296875 C159.10332352 738.67101931 152.12136504 736.94645754 143.94140625 733.79296875 C141.79253929 732.97273553 139.64125035 732.16139265 137.4831543 731.36572266 C136.03916956 730.83278776 134.60005528 730.2863856 133.16723633 729.72412109 C127.0290357 727.45071345 121.06819902 726.66732335 114.81640625 728.91796875 C109.10337057 732.64386159 104.84972034 736.7792608 100.56640625 742.10546875 C88.07468196 757.59858873 88.07468196 757.59858873 79.41015625 759.55078125 C69.05966848 760.5661772 61.06491286 754.00233346 53.01391602 748.35742188 C41.15794706 739.70093902 41.15794706 739.70093902 26.94140625 738.79296875 C19.98518571 740.96753856 14.27799408 745.64548138 8.44140625 749.85546875 C-6.07702246 760.29893728 -6.07702246 760.29893728 -14.80859375 759.79296875 C-26.49315817 757.6518182 -35.07900413 745.08564883 -41.953125 736.23828125 C-45.78378527 731.78931404 -49.98026927 728.14925265 -56.00366211 727.62304688 C-61.69047289 727.49724639 -66.10325277 728.47577106 -71.37109375 730.54296875 C-72.86058456 731.09269868 -74.35016834 731.64217675 -75.83984375 732.19140625 C-78.36467912 733.1450067 -80.88404693 734.11119252 -83.40234375 735.08203125 C-91.33740763 737.98459409 -99.46382194 739.92017792 -107.43359375 736.23046875 C-114.95863452 729.24293089 -119.00233731 721.4636191 -123.3828125 712.2421875 C-127.17612104 704.60552677 -131.39887632 698.98577695 -139.24609375 695.29296875 C-146.17269514 694.38456201 -153.01328756 695.37826242 -159.90234375 696.31640625 C-164.31006377 696.87007627 -168.68161546 697.04898684 -173.12109375 697.10546875 C-173.88486328 697.13447266 -174.64863281 697.16347656 -175.43554688 697.19335938 C-180.87701294 697.25387183 -184.88123431 696.4240079 -189.05859375 692.79296875 C-194.493833 686.77097072 -195.8436836 678.9797449 -197.62109375 671.29296875 C-200.90430484 655.99740932 -200.90430484 655.99740932 -211.05859375 644.79296875 C-215.18621939 643.20822313 -219.11027109 642.38208654 -223.48828125 641.828125 C-224.69613281 641.66763672 -225.90398437 641.50714844 -227.1484375 641.34179688 C-229.66369726 641.01862883 -232.17932315 640.69829728 -234.6953125 640.38085938 C-251.85375002 638.08758578 -251.85375002 638.08758578 -256.43359375 632.79296875 C-262.14633598 625.29499457 -261.13425639 615.65754913 -261.03198242 606.71655273 C-260.58256593 593.37044327 -260.58256593 593.37044327 -264.93359375 581.23046875 C-271.9043598 575.79327123 -279.94672431 572.7718907 -288.18359375 569.79296875 C-304.24781916 563.94055318 -304.24781916 563.94055318 -308.68359375 557.73046875 C-312.58751885 549.10073958 -309.9109639 539.58403482 -307.55859375 530.91796875 C-303.56735215 516.57688082 -303.56735215 516.57688082 -306.83984375 502.625 C-311.49141912 496.68768989 -317.08402371 492.27900169 -323.49609375 488.35546875 C-331.29843652 483.53798848 -339.65507849 478.06367048 -342.05859375 468.79296875 C-343.69852074 458.33843418 -336.09653968 447.6726576 -331.18188477 438.84423828 C-328.27441538 433.53962325 -325.33383308 427.95763942 -326.24609375 421.73046875 C-326.32214844 421.12074219 -326.39820313 420.51101563 -326.4765625 419.8828125 C-328.15640727 413.8511551 -331.67813718 409.60495506 -335.74609375 405.04296875 C-336.82140482 403.81084828 -337.89561889 402.5777696 -338.96875 401.34375 C-339.49355957 400.74256348 -340.01836914 400.14137695 -340.55908203 399.52197266 C-342.63986275 397.12273966 -344.67416934 394.68970927 -346.68359375 392.23046875 C-347.60011719 391.11478516 -347.60011719 391.11478516 -348.53515625 389.9765625 C-352.50904763 384.28065152 -353.03874871 378.55328985 -352.05859375 371.79296875 C-349.32623671 364.25792246 -343.30249947 358.52371359 -337.81762695 352.87768555 C-331.54785654 346.40792544 -326.23634622 340.30329518 -325.93359375 330.91796875 C-326.89962347 324.00445486 -330.79824637 317.9062281 -334.00976562 311.81640625 C-335.59251958 308.76289956 -337.04849233 305.66304171 -338.49609375 302.54296875 C-338.96917969 301.5271875 -339.44226563 300.51140625 -339.9296875 299.46484375 C-342.31737138 293.8137165 -343.15122787 288.52455406 -340.80859375 282.66796875 C-337.46893532 277.18138704 -333.70697735 273.53212574 -328.43359375 269.91796875 C-327.81621338 269.48452148 -327.19883301 269.05107422 -326.56274414 268.60449219 C-323.75900653 266.64009467 -320.93533087 264.71014389 -318.09375 262.80078125 C-312.69757384 259.14923347 -308.0431539 255.76208905 -305.05859375 249.79296875 C-304.11777962 241.12403851 -305.39466154 233.57407761 -307.55859375 225.23046875 C-309.92056061 216.05961198 -311.61715699 207.80456981 -309.18359375 198.41796875 C-302.84651362 190.58981094 -294.32076969 187.58400323 -285.11499023 184.35009766 C-271.88187193 179.90670132 -271.88187193 179.90670132 -263.05859375 169.79296875 C-260.22161446 161.28203088 -260.95042572 151.61093245 -261.18334961 142.73242188 C-261.28962309 135.74915463 -260.88040863 127.21751049 -256.05859375 121.79296875 C-248.22897044 116.62842876 -240.08991318 115.28770794 -230.93359375 114.375 C-217.09624652 113.08092502 -217.09624652 113.08092502 -205.18359375 106.35546875 C-201.33212987 100.928406 -200.150193 93.88736365 -198.46484375 87.56591797 C-198.0442117 85.99150535 -197.620986 84.41778362 -197.1953125 82.84472656 C-196.78237006 81.31139276 -196.37817412 79.77566623 -195.984375 78.23730469 C-194.02041777 70.87246506 -191.72152309 64.0640773 -185.05859375 59.79296875 C-181.13531251 58.48520834 -177.39574912 58.64825578 -173.30859375 58.66796875 C-172.12910156 58.66216797 -172.12910156 58.66216797 -170.92578125 58.65625 C-166.19852658 58.66410258 -161.74343157 59.11182141 -157.05859375 59.79296875 C-153.87047227 60.00275959 -150.69036831 60.06783001 -147.49609375 60.10546875 C-146.67173828 60.13447266 -145.84738281 60.16347656 -144.99804688 60.19335938 C-139.50261897 60.25046614 -136.38232347 59.49717899 -132.05859375 55.79296875 C-126.55931527 49.74495532 -123.06530026 42.12668302 -119.33374023 34.92456055 C-112.25630841 21.38136429 -112.25630841 21.38136429 -105.05859375 17.79296875 C-94.98739066 15.93698989 -86.23704696 19.41524004 -77.04638672 23.01464844 C-64.50462761 28.32610116 -64.50462761 28.32610116 -51.52734375 26.72265625 C-46.42384136 23.90958114 -42.63480328 20.64564461 -38.9765625 16.14453125 C-36.56109779 13.18300425 -34.00991161 10.36450706 -31.43359375 7.54296875 C-30.97799072 7.03556152 -30.5223877 6.5281543 -30.05297852 6.00537109 C-20.62244107 -4.35060092 -12.50498087 -6.67323705 0 0 Z " fill="#732B2B" transform="translate(928.05859375,582.20703125)"/>
<path d="M0 0 C2.77278854 2.22200333 5.46120277 4.50773517 8.12109375 6.86328125 C8.75789062 7.41628906 9.3946875 7.96929688 10.05078125 8.5390625 C24.11614828 21.59976046 33.81504807 42.1477533 35.0234375 61.203125 C35.05566406 62.08097656 35.08789062 62.95882812 35.12109375 63.86328125 C35.21583984 65.50490234 35.21583984 65.50490234 35.3125 67.1796875 C35.6538759 77.56412209 33.68934019 86.85399937 31.12109375 96.86328125 C32.21164062 96.81107422 32.21164062 96.81107422 33.32421875 96.7578125 C54.57625908 96.18564218 73.42540033 106.25355216 88.6796875 120.43359375 C105.95517908 137.62616297 114.0582323 158.92158261 114.49609375 183.17578125 C114.45090473 205.30836116 104.81791893 225.90712798 89.96484375 242.04296875 C72.90405617 258.88688191 51.23949896 267.1263951 27.45825195 267.04174805 C3.67409572 266.76102151 -16.48483526 257.45184379 -33.15234375 240.6328125 C-34.04099121 239.73796143 -34.92963867 238.84311035 -35.84521484 237.92114258 C-36.51633301 237.24204834 -37.18745117 236.5629541 -37.87890625 235.86328125 C-38.05710601 243.24613154 -38.17927781 250.62842289 -38.26342773 258.01293945 C-38.29852433 260.52226486 -38.34621479 263.0314482 -38.40698242 265.5402832 C-38.49237012 269.1574211 -38.53170514 272.77265947 -38.5625 276.390625 C-38.598629 277.50348373 -38.634758 278.61634247 -38.67198181 279.76292419 C-38.67601876 287.85961335 -36.51472983 292.11523973 -30.87890625 297.86328125 C-30.11964844 298.66121094 -29.36039063 299.45914062 -28.578125 300.28125 C-17.38687319 310.12520548 -4.78759156 316.00987722 9.72265625 319.28515625 C12.12109375 319.86328125 12.12109375 319.86328125 14.12109375 320.86328125 C14.12109375 327.13328125 14.12109375 333.40328125 14.12109375 339.86328125 C-28.77890625 339.86328125 -71.67890625 339.86328125 -115.87890625 339.86328125 C-115.87890625 333.26328125 -115.87890625 326.66328125 -115.87890625 319.86328125 C-114.16703125 319.47140625 -112.45515625 319.07953125 -110.69140625 318.67578125 C-93.03495401 314.2408469 -76.67448622 306.29939108 -65.38635254 291.55795288 C-62.63211208 286.63454454 -63.01982439 281.68357144 -63.1953125 276.171875 C-63.20521713 274.9860231 -63.21512177 273.8001712 -63.22532654 272.5783844 C-63.26428378 268.81788647 -63.35208103 265.06038599 -63.44140625 261.30078125 C-63.47654376 258.74027674 -63.50847846 256.17972615 -63.53710938 253.61914062 C-63.61398488 247.36617741 -63.7308894 241.11494352 -63.87890625 234.86328125 C-64.35915756 235.41467773 -64.83940887 235.96607422 -65.33421326 236.53417969 C-66.27950645 237.61747559 -66.27950645 237.61747559 -67.24389648 238.72265625 C-67.8685228 239.43905273 -68.49314911 240.15544922 -69.13670349 240.89355469 C-81.64682891 255.03744593 -101.19513501 264.46513092 -119.87890625 266.86328125 C-123.31740549 267.02714096 -126.7494324 267.04834532 -130.19140625 267.05078125 C-131.09052734 267.06302734 -131.98964844 267.07527344 -132.91601562 267.08789062 C-138.84988609 267.10076236 -144.14733677 266.35762706 -149.87890625 264.86328125 C-150.77738281 264.67507813 -151.67585937 264.486875 -152.6015625 264.29296875 C-173.71078402 259.28877934 -191.51533378 245.44998222 -203.1640625 227.4140625 C-215.60369792 207.16448463 -219.2674822 182.95354009 -213.9765625 159.8046875 C-208.27546733 137.94232158 -193.70476751 119.32140916 -174.39453125 107.83203125 C-160.21982657 99.75010018 -148.03589675 96.274565 -131.87890625 96.86328125 C-132.16765625 95.80753906 -132.45640625 94.75179687 -132.75390625 93.6640625 C-138.61046965 70.91747234 -137.06211324 48.92713072 -125.8203125 28.0703125 C-113.38082291 7.52137697 -94.89658003 -7.88651429 -71.42016602 -13.97119141 C-47.08304243 -19.71252243 -20.27671422 -15.04933878 0 0 Z " fill="#FEFEFE" transform="translate(1010.87890625,798.13671875)"/>
<path d="M0 0 C4.53184298 1.26164894 8.10570016 4.55020631 11.77734375 7.36328125 C23.22938061 15.59490302 34.75557249 18.63660325 48.75 17.5 C60.25434566 15.06930992 70.25896 8.92953258 79.4609375 1.8203125 C82.21474405 0.23193944 83.61129624 0.15331048 86.75 0.5 C88.52001953 1.84179687 88.52001953 1.84179687 90.1328125 3.71875 C90.73738281 4.40042236 91.34195312 5.08209473 91.96484375 5.78442383 C92.59519531 6.51556396 93.22554687 7.2467041 93.875 8 C103.17370433 18.34844799 113.14593402 27.85365954 127.765625 28.66796875 C138.88089257 28.73508993 147.69238491 26.29813028 158.1015625 22.62109375 C161.72795205 21.50677491 164.99644678 20.92939105 168.75 20.5 C171.50404652 24.80319768 174.10526682 29.13110197 176.55688477 33.61499023 C181.5869518 42.73114717 187.42879193 51.33631651 196.75 56.5 C197.77673828 57.0878125 197.77673828 57.0878125 198.82421875 57.6875 C211.8291319 63.71876407 229.83562129 60.99559541 243.75 59.5 C246.47704923 63.4981315 247.61128106 67.39850122 248.625 72.0625 C252.05345819 86.56751543 257.19923252 98.66535795 270.12109375 107.00390625 C278.79094887 111.93786541 287.60701741 113.27511358 297.40161133 114.37402344 C298.27712646 114.47875977 299.1526416 114.58349609 300.0546875 114.69140625 C300.83827637 114.77592041 301.62186523 114.86043457 302.42919922 114.94750977 C305.41989336 115.65947493 307.35031546 116.56206462 309.75 118.5 C310.34594727 121.12866211 310.34594727 121.12866211 310.31640625 124.27734375 C310.3328418 126.00887695 310.3328418 126.00887695 310.34960938 127.77539062 C310.33736328 128.98388672 310.32511719 130.19238281 310.3125 131.4375 C310.21350774 145.30403092 312.50975191 159.10684009 322.64453125 169.4296875 C331.76136892 177.04114752 343.06953001 181.58458288 354.30078125 185.06640625 C356.75 186.5 356.75 186.5 357.7265625 189.28125 C357.75244508 192.83579077 357.05576698 195.1179353 355.8125 198.4375 C352.00620226 210.96101808 351.05696168 227.20929765 357.2109375 239.0703125 C357.71882813 239.87210938 358.22671875 240.67390625 358.75 241.5 C359.25789063 242.30179688 359.76578125 243.10359375 360.2890625 243.9296875 C366.36858336 252.48711733 375.1471847 258.22276807 383.71875 264.0546875 C385.75 265.5 385.75 265.5 387.75 267.5 C387.45361616 272.16592843 385.08107804 276.01185332 382.9375 280.0625 C376.48656923 292.73253121 371.98809569 304.57459092 375.6328125 318.9921875 C379.49303104 329.85704102 386.0508549 338.02742273 393.83203125 346.37109375 C397.78620802 350.76014943 397.78620802 350.76014943 397.6328125 353.89453125 C396.53911091 357.12240277 394.9997482 358.75237685 392.625 361.1875 C384.48303354 369.92395925 375.51135868 381.06447486 374.75 393.5 C374.688125 394.34820313 374.62625 395.19640625 374.5625 396.0703125 C374.03192183 408.77102754 378.53927843 418.9391091 384.83959961 429.67651367 C387.7311021 434.75773251 387.7311021 434.75773251 387.8203125 438.26171875 C386.36768948 441.29950339 384.60689174 442.45087857 381.8125 444.3125 C380.81734375 445.00214844 379.8221875 445.69179687 378.796875 446.40234375 C377.79140625 447.09457031 376.7859375 447.78679687 375.75 448.5 C366.04104023 455.55460966 357.29445829 463.64931147 354.203125 475.6171875 C352.30537369 487.69081221 353.40659614 499.60413626 356.97265625 511.21484375 C357.75679526 514.52871767 357.84106576 516.30677612 356.75 519.5 C354.0377302 522.2122698 350.85766165 523.00856377 347.3125 524.25 C332.33035599 529.70110381 320.68525307 536.30815851 313.5234375 551.01953125 C310.03941397 560.1807586 310.24558796 569.59655107 310.25268555 579.29443359 C310.23588745 581.00880615 310.23588745 581.00880615 310.21875 582.7578125 C310.22551758 584.30686279 310.22551758 584.30686279 310.23242188 585.88720703 C309.75 588.5 309.75 588.5 307.97851562 590.32202148 C305.67477578 591.53976302 304.20536599 591.93243904 301.625 592.08984375 C300.84181396 592.14946289 300.05862793 592.20908203 299.25170898 592.27050781 C298.42614502 592.32561523 297.60058105 592.38072266 296.75 592.4375 C283.01514886 593.63941329 270.52409473 597.3369247 260.5625 607.375 C252.35590021 617.2892357 249.02926479 629.88564055 246.4765625 642.24609375 C245.75 645.5 245.75 645.5 244.75 646.5 C242.13953759 646.53917031 239.55401283 646.5170561 236.9453125 646.45703125 C235.31251265 646.43460581 233.67969919 646.41315457 232.046875 646.39257812 C229.47520881 646.35577737 226.90424324 646.31318249 224.33300781 646.25317383 C209.75401545 645.928787 198.9230321 647.23050699 187.75 657.5 C186.97076172 658.21542969 186.97076172 658.21542969 186.17578125 658.9453125 C181.3111739 664.0364906 178.23163951 670.5208667 174.8984375 676.66015625 C173.02691556 680.07990623 170.96251765 683.29134884 168.75 686.5 C163.05271936 685.89229007 158.01886247 684.39634966 152.625 682.5 C140.35978063 678.23033414 127.70471935 675.91576634 115.296875 681.18359375 C104.9226847 686.54571358 96.64704987 694.51625924 89.4375 703.625 C86.75 706.5 86.75 706.5 84.453125 706.93359375 C80.76383143 706.341814 78.78591733 704.68349871 75.8125 702.4375 C62.35881628 692.63316452 49.64326581 687.97930873 32.75 689.5 C21.99490208 691.77432644 11.82584087 698.356718 3.56640625 705.43359375 C1.11002691 706.87572613 -0.43274697 706.79232403 -3.25 706.5 C-5.05175781 705.14233398 -5.05175781 705.14233398 -6.703125 703.24609375 C-7.31776611 702.5593457 -7.93240723 701.87259766 -8.56567383 701.16503906 C-9.20400146 700.42995117 -9.8423291 699.69486328 -10.5 698.9375 C-20.39116497 688.00182227 -29.97377855 679.2969582 -45.37890625 678.296875 C-57.52716264 678.1310285 -67.23628761 680.8212244 -78.33984375 685.609375 C-83.04369084 687.04894163 -83.04369084 687.04894163 -86.25 685.5 C-88.22220905 682.84499638 -89.64733734 679.95123773 -91.125 677 C-98.22442268 663.55733736 -105.77420318 653.3415193 -120.25 647.5 C-124.68689937 646.34307887 -129.06092519 646.37149491 -133.61328125 646.40234375 C-134.40526413 646.4037587 -135.19724701 646.40517365 -136.01322937 646.40663147 C-138.52969219 646.41220543 -141.04606431 646.42475307 -143.5625 646.4375 C-145.27408725 646.44251837 -146.98567591 646.44708069 -148.69726562 646.45117188 C-152.88154508 646.46216632 -157.06575719 646.47941293 -161.25 646.5 C-162.94997684 643.32058385 -163.77724812 640.35515433 -164.49145508 636.81420898 C-167.20041884 623.51849027 -172.18965621 609.99077088 -183.6328125 601.79296875 C-193.56100204 595.55369367 -202.63122851 593.85052759 -214.11328125 592.68359375 C-215.10199219 592.57144531 -216.09070313 592.45929687 -217.109375 592.34375 C-218.00108398 592.25287109 -218.89279297 592.16199219 -219.81152344 592.06835938 C-222.72475082 591.38934522 -224.18892178 590.67951067 -226.25 588.5 C-226.73242188 585.88720703 -226.73242188 585.88720703 -226.71875 582.7578125 C-226.7297876 581.61505859 -226.7408252 580.47230469 -226.75219727 579.29492188 C-226.75147217 578.08384766 -226.75074707 576.87277344 -226.75 575.625 C-227.0501607 560.51195835 -228.53772176 549.04483872 -239.25 537.5 C-246.40832453 531.23201434 -254.8298652 527.71820463 -263.54296875 524.15234375 C-264.62191406 523.71019531 -265.70085938 523.26804687 -266.8125 522.8125 C-267.80378906 522.41675781 -268.79507813 522.02101563 -269.81640625 521.61328125 C-272.25 520.5 -272.25 520.5 -274.25 518.5 C-273.85094844 514.503864 -272.77278269 510.79104 -271.6875 506.9375 C-270.27118793 500.86759111 -269.91954727 495.03866787 -269.875 488.8125 C-269.86138428 487.94616943 -269.84776855 487.07983887 -269.83374023 486.18725586 C-269.92165947 473.48955 -274.62429686 464.4089581 -283.3515625 455.30859375 C-288.39088419 450.62660578 -293.96470407 446.8706495 -299.74609375 443.1640625 C-302.25 441.5 -302.25 441.5 -304.25 439.5 C-303.95880787 433.62015889 -300.24329408 428.05129508 -297.6640625 422.88867188 C-291.84800909 410.97915461 -288.46294616 398.80155675 -292.875 385.75 C-296.79483703 376.44038704 -302.03632947 369.2627926 -308.98046875 361.9453125 C-314.19351093 356.32850629 -314.19351093 356.32850629 -314.4375 352.75 C-312.94432019 348.66340262 -310.69572438 346.83058981 -307.57421875 343.8828125 C-298.06721833 334.1361398 -291.18378577 321.87972674 -290.625 308.125 C-291.12308869 295.37130791 -296.03858325 285.02981012 -302.7734375 274.5234375 C-304.25 271.5 -304.25 271.5 -304.21875 268.80859375 C-303.03591226 265.98981511 -301.85115274 264.96310419 -299.375 263.1875 C-298.56417969 262.589375 -297.75335937 261.99125 -296.91796875 261.375 C-295.1183445 260.11025675 -293.30809468 258.8605169 -291.48828125 257.625 C-284.8044029 253.00128499 -279.77837452 248.2720714 -275.25 241.5 C-274.72148438 240.76136719 -274.19296875 240.02273438 -273.6484375 239.26171875 C-267.61971026 228.9724664 -268.58844837 213.1054761 -271.1953125 201.78515625 C-271.85569892 199.27846781 -272.63071593 196.88356662 -273.47265625 194.42578125 C-274.33454343 191.18179384 -274.3187859 189.65676351 -273.25 186.5 C-271.29150391 185.21728516 -271.29150391 185.21728516 -268.7265625 184.2890625 C-267.32579468 183.75829102 -267.32579468 183.75829102 -265.89672852 183.21679688 C-264.89955811 182.85650391 -263.9023877 182.49621094 -262.875 182.125 C-248.72452753 176.65573638 -237.65182047 171.28383372 -230.9375 156.875 C-230.32811129 155.43562939 -229.77008737 153.97399169 -229.25 152.5 C-228.89421875 151.53835938 -228.5384375 150.57671875 -228.171875 149.5859375 C-226.24232608 142.68768445 -226.84956451 135.12110555 -226.77148438 128.01953125 C-226.74505859 126.84261719 -226.71863281 125.66570312 -226.69140625 124.453125 C-226.67795166 123.38223633 -226.66449707 122.31134766 -226.65063477 121.20800781 C-226.25 118.5 -226.25 118.5 -225.02661133 116.67626953 C-222.7558807 115.17285052 -221.09157354 114.97125408 -218.3828125 114.7265625 C-217.42068848 114.62698242 -216.45856445 114.52740234 -215.46728516 114.42480469 C-213.936604 114.27640137 -213.936604 114.27640137 -212.375 114.125 C-198.27259464 112.503431 -185.95059863 109.47883564 -176.3203125 98.25 C-169.28716305 88.83222048 -165.95001649 78.47689309 -163.59301758 67.11108398 C-162.44708978 61.69708978 -162.44708978 61.69708978 -160.25 59.5 C-158.08569336 59.51025391 -158.08569336 59.51025391 -155.40234375 59.8515625 C-132.98790513 62.48285187 -132.98790513 62.48285187 -112.25 55.5 C-111.05117188 54.75556641 -111.05117188 54.75556641 -109.828125 53.99609375 C-99.54432832 46.8353964 -93.89538943 35.45078105 -88.03515625 24.7109375 C-86.25 21.5 -86.25 21.5 -85.25 20.5 C-78.92476607 21.02166878 -73.46067348 23.09273206 -67.56640625 25.328125 C-56.10509076 29.55616905 -43.69392167 30.21051946 -32.1640625 25.890625 C-22.87363909 21.45712535 -14.74937908 14.28770455 -8.44921875 6.18359375 C-4.0930321 0.62969725 -4.0930321 0.62969725 0 0 Z M-0.25 9.5 C-1.07242187 10.42941406 -1.89484375 11.35882812 -2.7421875 12.31640625 C-13.42826724 24.22361434 -25.36459943 35.42513253 -42.17041016 36.63867188 C-56.42306735 37.32263849 -67.95581828 34.57622475 -81.25 29.5 C-81.79527344 30.52738281 -82.34054687 31.55476562 -82.90234375 32.61328125 C-90.91667285 47.45496397 -99.44464024 59.3462025 -115.25 66.5 C-128.56800123 70.28511614 -141.58299446 69.98310723 -155.25 68.5 C-155.3951001 69.03778076 -155.5402002 69.57556152 -155.68969727 70.12963867 C-160.57040765 87.95079116 -165.8465154 103.97335785 -182.40234375 113.93359375 C-193.27024338 119.91168395 -205.03303069 122.06978587 -217.25 123.5 C-217.26417969 124.74652344 -217.27835938 125.99304688 -217.29296875 127.27734375 C-217.71430324 145.50096094 -220.81596116 161.48625434 -233.5625 175.3125 C-241.8928279 183.08623584 -253.42043513 188.28039963 -264.25 191.5 C-263.77906327 196.28785672 -263.18249427 200.91818314 -262.1875 205.625 C-260.19366075 216.40985776 -260.32024003 227.2013187 -264.25 237.5 C-264.61738281 238.46421875 -264.98476563 239.4284375 -265.36328125 240.421875 C-271.18478576 253.67910651 -282.12090239 262.18813264 -294.25 269.5 C-293.63699037 272.80528168 -292.29808025 275.61984779 -290.82446289 278.62451172 C-283.56205257 293.44812014 -280.36399196 308.09375161 -285.1875 324.25 C-289.26904246 335.13025908 -296.33993276 344.08124676 -304.25 352.5 C-302.70695003 356.02697137 -300.57217503 358.59724334 -298.0625 361.5 C-286.96775577 374.91731549 -281.68115818 387.72429482 -282.93945312 405.0859375 C-284.30090574 415.66930498 -289.02323816 426.29534861 -294.25 435.5 C-289.1075087 440.97426493 -283.14973124 445.35419888 -277.125 449.8125 C-267.6366762 458.68202007 -261.83384952 470.90016655 -261.046875 483.83984375 C-260.93987472 492.0521156 -261.74175374 499.28393973 -263.59375 507.2578125 C-264.17422035 510.12561243 -264.38178026 512.58985258 -264.25 515.5 C-263.22261719 515.85191406 -262.19523438 516.20382812 -261.13671875 516.56640625 C-245.08921194 522.21595209 -231.43154781 529.92536403 -223.46484375 545.66015625 C-219.44720592 555.05186912 -218.1794014 564.76279739 -217.6875 574.875 C-217.64431641 575.70644531 -217.60113281 576.53789063 -217.55664062 577.39453125 C-217.45138195 579.42953228 -217.35026928 581.46474703 -217.25 583.5 C-215.94546875 583.65855469 -214.6409375 583.81710937 -213.296875 583.98046875 C-203.30231919 585.27932072 -194.27212374 586.74509695 -185.25 591.5 C-183.93128906 592.16322266 -183.93128906 592.16322266 -182.5859375 592.83984375 C-169.77891032 599.82373622 -162.83973715 611.72440706 -158.703125 625.40234375 C-157.45908771 629.74608255 -156.32942069 634.11267718 -155.25 638.5 C-154.6415625 638.4278125 -154.033125 638.355625 -153.40625 638.28125 C-134.59072919 636.28901838 -117.91093978 637.1081039 -101.8125 648.17578125 C-94.9315814 653.75458158 -90.74523784 661.00503864 -86.25 668.5 C-85.23248293 670.12707858 -84.21236408 671.75253912 -83.1875 673.375 C-82.548125 674.40625 -81.90875 675.4375 -81.25 676.5 C-75.57204638 675.30946134 -70.05178011 673.90538416 -64.51171875 672.18359375 C-51.3022613 668.19109797 -36.60223709 669.45707811 -24.25 675.5 C-15.3066013 681.08310187 -7.61131808 688.10306013 -1.25 696.5 C2.69707866 695.85324976 5.48670668 693.89984453 8.8125 691.75 C23.67455806 682.35156175 37.27559879 679.62020764 54.7578125 681.890625 C63.15373878 684.11056483 72.8957997 689.19241566 79.44921875 694.81640625 C81.54420496 696.67347547 81.54420496 696.67347547 83.74609375 696.59765625 C86.72809693 694.9642393 88.6539686 692.49966552 90.8125 689.9375 C100.52310075 678.92767429 111.79727445 671.35754739 126.69140625 670.19140625 C136.93506529 669.80845529 145.54857924 671.08084602 155.25024414 674.45336914 C156.43928345 674.86510376 156.43928345 674.86510376 157.65234375 675.28515625 C158.34835693 675.54176025 159.04437012 675.79836426 159.76147461 676.06274414 C162.15492427 676.5890386 163.48327547 676.4157341 165.75 675.5 C167.16619493 673.36083161 168.33851711 671.33238965 169.5 669.0625 C177.39355883 654.58022466 187.84550302 643.75947619 203.96875 638.8203125 C215.12945409 636.10454117 227.45775421 637.16024202 238.75 638.5 C239.02972656 637.36304688 239.30945312 636.22609375 239.59765625 635.0546875 C243.93303529 618.09320882 249.80066639 603.07617134 264.984375 593.09765625 C276.26491142 586.58107518 288.02196809 585.06086533 300.75 583.5 C300.80607422 581.77716797 300.80607422 581.77716797 300.86328125 580.01953125 C301.5135298 563.52994075 303.60552033 547.39845347 314.75 534.5 C315.25144531 533.90445313 315.75289062 533.30890625 316.26953125 532.6953125 C323.78252496 524.46940698 333.78117564 520.13310472 344.23046875 516.8359375 C346.91797464 515.74817272 346.91797464 515.74817272 347.703125 513.28125 C347.76085578 509.85589028 347.11835147 506.95585274 346.3125 503.625 C342.94338091 488.28963397 344.06474389 473.69463265 352.10546875 460.01953125 C357.12505652 452.32918894 363.45465398 447.18718914 370.76171875 441.796875 C373.31705119 439.83277634 375.54399791 437.84018713 377.75 435.5 C377.29109375 434.56800781 376.8321875 433.63601563 376.359375 432.67578125 C368.6125756 416.70948208 363.5022592 401.53868753 368.1875 383.8125 C372.15968948 372.59773183 379.53170702 362.96461784 387.75 354.5 C386.03395667 350.4256515 383.21083534 347.25832257 380.4375 343.875 C376.0436012 338.38405124 372.36618347 333.07909428 369.75 326.5 C369.43417969 325.77296875 369.11835937 325.0459375 368.79296875 324.296875 C363.81158155 310.92219155 366.14217792 296.20816529 371.75 283.5 C373.28427409 280.49253533 374.87321313 277.56468345 376.61328125 274.671875 C377.98185463 272.46556644 377.98185463 272.46556644 377.75 269.5 C375.20192617 267.49902658 375.20192617 267.49902658 371.9375 265.5 C358.89189879 256.81545917 349.53268425 246.41125231 345.3125 231.0625 C343.52952863 220.34486097 344.66877356 210.16906927 347.19140625 199.7421875 C347.95296893 195.49919323 347.95296893 195.49919323 346.75 191.5 C344.39880603 190.27836136 342.36327739 189.4396308 339.875 188.625 C326.5269875 183.75818988 315.18142464 176.1489303 308.1328125 163.49609375 C302.12508916 150.47935984 300.91131156 137.68075282 300.75 123.5 C299.51765625 123.32984375 298.2853125 123.1596875 297.015625 122.984375 C279.59658468 120.48384866 263.46584621 116.86160997 252.25 102.125 C245.36694635 91.67776553 242.03900576 80.43839111 238.75 68.5 C238.05028076 68.5407666 237.35056152 68.5815332 236.62963867 68.62353516 C233.39951707 68.80406623 230.16868266 68.96462545 226.9375 69.125 C225.83728516 69.18945312 224.73707031 69.25390625 223.60351562 69.3203125 C207.41382448 70.08442772 194.11667877 66.19047231 181.75 55.5 C174.3742273 48.04405586 169.66006617 38.6609105 164.75 29.5 C163.53183594 29.92152344 162.31367187 30.34304688 161.05859375 30.77734375 C159.43500617 31.33105281 157.81130202 31.88442012 156.1875 32.4375 C155.38763672 32.71529297 154.58777344 32.99308594 153.76367188 33.27929688 C141.3475674 37.485569 125.49068146 39.15139674 113.1875 33.75 C112.383125 33.3375 111.57875 32.925 110.75 32.5 C109.925 32.0875 109.1 31.675 108.25 31.25 C99.06296895 26.19713292 91.09707425 18.81685592 84.75 10.5 C81.26293701 11.02045716 78.71472508 12.6594422 75.77856445 14.53540039 C60.74432063 24.12823905 45.94803678 28.289735 28.19140625 24.80078125 C17.82733612 21.606653 8.5877058 15.65366182 -0.25 9.5 Z " fill="#FAF7F7" transform="translate(918.25,606.5)"/>
</svg>
